# Blender v2.81 (sub 16) OBJ File: 'bodice.blend'
# www.blender.org
mtllib bodice.mtl
o Plane
v 0.217179 -0.005630 0.302684
v 0.379791 0.002867 0.309388
v 0.224544 -0.018542 0.140391
v 0.387157 -0.010046 0.147095
v 0.141103 -0.016253 0.218249
v 0.294873 0.004952 0.385637
v 0.463232 0.000578 0.231529
v 0.309463 -0.020627 0.064142
v 0.269036 0.669997 0.169455
vt 0.500000 0.500000
vt 1.000000 0.500000
vt 1.000000 1.000000
vt 0.500000 1.000000
vt 0.000000 0.500000
vt 0.000000 1.000000
vt 0.000000 0.000000
vt 0.500000 0.000000
vt 1.000000 0.000000
vn 0.7190 0.1472 -0.6792
vn -0.6723 0.0745 -0.7366
vn -0.7353 0.1850 0.6520
vn 0.6560 0.2577 0.7094
usemtl Material.001
s off
f 9/1/1 7/2/1 4/3/1 8/4/1
f 5/5/2 9/1/2 8/4/2 3/6/2
f 1/7/3 6/8/3 9/1/3 5/5/3
f 6/8/4 2/9/4 7/2/4 9/1/4
o Plane.001
v -0.994093 -0.000001 1.015046
v 1.005908 -0.000001 1.015046
v -0.994093 -0.000001 -0.984954
v 1.005908 -0.000001 -0.984954
vt 0.000000 0.000000
vt 1.000000 0.000000
vt 1.000000 1.000000
vt 0.000000 1.000000
vn 0.0000 1.0000 0.0000
usemtl Material.001
s off
f 10/10/5 11/11/5 13/12/5 12/13/5
o Plane.002
v -0.318999 -0.035139 -0.211444
v -0.156386 -0.026643 -0.204740
v -0.311634 -0.048052 -0.373737
v -0.149021 -0.039555 -0.367033
v -0.395074 -0.045763 -0.295879
v -0.241305 -0.024558 -0.128491
v -0.072946 -0.028931 -0.282599
v -0.226715 -0.050137 -0.449986
v -0.267142 0.640487 -0.344673
vt 0.500000 0.500000
vt 1.000000 0.500000
vt 1.000000 1.000000
vt 0.500000 1.000000
vt 0.000000 0.500000
vt 0.000000 1.000000
vt 0.000000 0.000000
vt 0.500000 0.000000
vt 1.000000 0.000000
vn 0.7190 0.1472 -0.6792
vn -0.6723 0.0745 -0.7365
vn -0.7353 0.1850 0.6520
vn 0.6560 0.2577 0.7094
usemtl Material.001
s off
f 22/14/6 20/15/6 17/16/6 21/17/6
f 18/18/7 22/14/7 21/17/7 16/19/7
f 14/20/8 19/21/8 22/14/8 18/18/8
f 19/21/9 15/22/9 20/15/9 22/14/9
o Plane.003
v -0.317369 -0.026779 0.767600
v -0.156006 -0.004938 0.774303
v -0.308966 -0.039042 0.605306
v -0.147603 -0.017201 0.612010
v -0.392312 -0.043624 0.683165
v -0.240808 -0.009844 0.850552
v -0.072660 -0.000356 0.696445
v -0.224164 -0.034136 0.529057
v -0.321254 0.650823 0.634371
vt 0.500000 0.500000
vt 1.000000 0.500000
vt 1.000000 1.000000
vt 0.500000 1.000000
vt 0.000000 0.500000
vt 0.000000 1.000000
vt 0.000000 0.000000
vt 0.500000 0.000000
vt 1.000000 0.000000
vn 0.7045 0.2059 -0.6792
vn -0.6761 0.0190 -0.7365
vn -0.7480 0.1239 0.6520
vn 0.6326 0.3108 0.7094
usemtl Material.001
s off
f 31/23/10 29/24/10 26/25/10 30/26/10
f 27/27/11 31/23/11 30/26/11 25/28/11
f 23/29/12 28/30/12 31/23/12 27/27/12
f 28/30/13 24/31/13 29/24/13 31/23/13
o Plane.004
v -0.831371 -0.018653 -0.658309
v -0.669425 -0.027542 -0.642354
v -0.814966 -0.010438 -0.820246
v -0.653020 -0.019327 -0.804290
v -0.902599 -0.010186 -0.747103
v -0.758444 -0.027127 -0.570905
v -0.581792 -0.027794 -0.715497
v -0.725946 -0.010853 -0.891694
v -0.708653 0.660033 -0.693456
vt 0.500000 0.500000
vt 1.000000 0.500000
vt 1.000000 1.000000
vt 0.500000 1.000000
vt 0.000000 0.500000
vt 0.000000 1.000000
vt 0.000000 0.000000
vt 0.500000 0.000000
vt 1.000000 0.000000
vn 0.7712 0.1635 -0.6152
vn -0.6144 0.2396 -0.7517
vn -0.7548 0.1693 0.6338
vn 0.6308 0.0932 0.7703
usemtl Material.001
s off
f 40/32/14 38/33/14 35/34/14 39/35/14
f 36/36/15 40/32/15 39/35/15 34/37/15
f 32/38/16 37/39/16 40/32/16 36/36/16
f 37/39/17 33/40/17 38/33/17 40/32/17
o Plane.005
v -0.316340 -0.001074 -0.717978
v -0.153727 0.007423 -0.711275
v -0.308975 -0.013987 -0.880272
v -0.146362 -0.005490 -0.873568
v -0.392415 -0.011698 -0.802413
v -0.238646 0.009508 -0.635026
v -0.070287 0.005134 -0.789133
v -0.224056 -0.016072 -0.956521
v -0.264483 0.674552 -0.851207
vt 0.500000 0.500000
vt 1.000000 0.500000
vt 1.000000 1.000000
vt 0.500000 1.000000
vt 0.000000 0.500000
vt 0.000000 1.000000
vt 0.000000 0.000000
vt 0.500000 0.000000
vt 1.000000 0.000000
vn 0.7190 0.1472 -0.6792
vn -0.6723 0.0745 -0.7366
vn -0.7353 0.1850 0.6520
vn 0.6560 0.2577 0.7094
usemtl Material.001
s off
f 49/41/18 47/42/18 44/43/18 48/44/18
f 45/45/19 49/41/19 48/44/19 43/46/19
f 41/47/20 46/48/20 49/41/20 45/45/20
f 46/48/21 42/49/21 47/42/21 49/41/21
o Plane.006
v -0.769192 -0.005131 -0.186698
v -0.607269 -0.008604 -0.168559
v -0.750864 0.005396 -0.348294
v -0.588941 0.001923 -0.330156
v -0.839447 0.001836 -0.276393
v -0.697220 -0.012031 -0.098370
v -0.518686 -0.005044 -0.240461
v -0.660913 0.008823 -0.418484
v -0.669574 0.677723 -0.213096
vt 0.500000 0.500000
vt 1.000000 0.500000
vt 1.000000 1.000000
vt 0.500000 1.000000
vt 0.000000 0.500000
vt 0.000000 1.000000
vt 0.000000 0.000000
vt 0.500000 0.000000
vt 1.000000 0.000000
vn 0.7734 0.1967 -0.6026
vn -0.6120 0.2264 -0.7578
vn -0.7688 0.1363 0.6248
vn 0.6166 0.1066 0.7800
usemtl Material.001
s off
f 58/50/22 56/51/22 53/52/22 57/53/22
f 54/54/23 58/50/23 57/53/23 52/55/23
f 50/56/24 55/57/24 58/50/24 54/54/24
f 55/57/25 51/58/25 56/51/25 58/50/25
o Plane.007
v -0.842802 0.008906 0.784839
v -0.681242 0.028695 0.776661
v -0.845916 -0.030956 0.626847
v -0.684357 -0.011167 0.618669
v -0.923600 -0.020731 0.709854
v -0.760494 0.038352 0.858241
v -0.603558 0.018470 0.693654
v -0.766664 -0.040612 0.545267
v -0.852088 0.653894 0.538235
vt 0.500000 0.500000
vt 1.000000 0.500000
vt 1.000000 1.000000
vt 0.500000 1.000000
vt 0.000000 0.500000
vt 0.000000 1.000000
vt 0.000000 0.000000
vt 0.500000 0.000000
vt 1.000000 0.000000
vn 0.6561 0.0747 -0.7509
vn -0.7262 -0.0947 -0.6810
vn -0.6995 0.2464 0.6708
vn 0.6828 0.4157 0.6008
usemtl Material.001
s off
f 67/59/26 65/60/26 62/61/26 66/62/26
f 63/63/27 67/59/27 66/62/27 61/64/27
f 59/65/28 64/66/28 67/59/28 63/63/28
f 64/66/29 60/67/29 65/60/29 67/59/29
o Plane.008
v -0.839489 -0.016771 0.291087
v -0.677520 -0.019831 0.308884
v -0.821538 -0.006990 0.129401
v -0.659569 -0.010050 0.147199
v -0.909955 -0.010380 0.201514
v -0.767309 -0.023099 0.379288
v -0.589103 -0.016441 0.236771
v -0.731749 -0.003723 0.058997
v -0.741310 0.666145 0.261165
vt 0.500000 0.500000
vt 1.000000 0.500000
vt 1.000000 1.000000
vt 0.500000 1.000000
vt 0.000000 0.500000
vt 0.000000 1.000000
vt 0.000000 0.000000
vt 0.500000 0.000000
vt 1.000000 0.000000
vn 0.7717 0.1953 -0.6052
vn -0.6141 0.2215 -0.7575
vn -0.7677 0.1378 0.6258
vn 0.6181 0.1116 0.7781
usemtl Material.001
s off
f 76/68/30 74/69/30 71/70/30 75/71/30
f 72/72/31 76/68/31 75/71/31 70/73/31
f 68/74/32 73/75/32 76/68/32 72/72/32
f 73/75/33 69/76/33 74/69/33 76/68/33
o Plane.009
v -0.342976 -0.013272 0.284328
v -0.180363 -0.004776 0.291032
v -0.335610 -0.026185 0.122035
v -0.172997 -0.017688 0.128739
v -0.419051 -0.023896 0.199894
v -0.265282 -0.002690 0.367281
v -0.096922 -0.007064 0.213174
v -0.250691 -0.028270 0.045786
v -0.291118 0.662354 0.151099
vt 0.500000 0.500000
vt 1.000000 0.500000
vt 1.000000 1.000000
vt 0.500000 1.000000
vt 0.000000 0.500000
vt 0.000000 1.000000
vt 0.000000 0.000000
vt 0.500000 0.000000
vt 1.000000 0.000000
vn 0.7190 0.1472 -0.6792
vn -0.6723 0.0745 -0.7365
vn -0.7353 0.1850 0.6520
vn 0.6560 0.2577 0.7094
usemtl Material.001
s off
f 85/77/34 83/78/34 80/79/34 84/80/34
f 81/81/35 85/77/35 84/80/35 79/82/35
f 77/83/36 82/84/36 85/77/36 81/81/36
f 82/84/37 78/85/37 83/78/37 85/77/37
o Plane.010
v 0.644974 -0.005630 0.300779
v 0.807587 0.002867 0.307483
v 0.652340 -0.018542 0.138486
v 0.814952 -0.010046 0.145190
v 0.568899 -0.016253 0.216345
v 0.722668 0.004952 0.383732
v 0.891028 0.000578 0.229625
v 0.737259 -0.020627 0.062237
v 0.696832 0.669997 0.167550
vt 0.500000 0.500000
vt 1.000000 0.500000
vt 1.000000 1.000000
vt 0.500000 1.000000
vt 0.000000 0.500000
vt 0.000000 1.000000
vt 0.000000 0.000000
vt 0.500000 0.000000
vt 1.000000 0.000000
vn 0.7190 0.1472 -0.6792
vn -0.6723 0.0745 -0.7365
vn -0.7353 0.1850 0.6520
vn 0.6560 0.2577 0.7094
usemtl Material.001
s off
f 94/86/38 92/87/38 89/88/38 93/89/38
f 90/90/39 94/86/39 93/89/39 88/91/39
f 86/92/40 91/93/40 94/86/40 90/90/40
f 91/93/41 87/94/41 92/87/41 94/86/41
o Plane.011
v 0.665238 -0.005630 0.786905
v 0.827851 0.002867 0.793609
v 0.672604 -0.018542 0.624612
v 0.835216 -0.010046 0.631316
v 0.589163 -0.016253 0.702470
v 0.742932 0.004952 0.869858
v 0.911292 0.000578 0.715750
v 0.757523 -0.020627 0.548363
v 0.717096 0.669997 0.653676
vt 0.500000 0.500000
vt 1.000000 0.500000
vt 1.000000 1.000000
vt 0.500000 1.000000
vt 0.000000 0.500000
vt 0.000000 1.000000
vt 0.000000 0.000000
vt 0.500000 0.000000
vt 1.000000 0.000000
vn 0.7190 0.1472 -0.6792
vn -0.6723 0.0745 -0.7365
vn -0.7353 0.1850 0.6520
vn 0.6560 0.2577 0.7094
usemtl Material.001
s off
f 103/95/42 101/96/42 98/97/42 102/98/42
f 99/99/43 103/95/43 102/98/43 97/100/43
f 95/101/44 100/102/44 103/95/44 99/99/44
f 100/102/45 96/103/45 101/96/45 103/95/45
o Plane.012
v 0.226843 -0.012781 0.823600
v 0.389456 -0.004978 0.831101
v 0.234208 -0.009811 0.660821
v 0.396821 -0.002009 0.668322
v 0.150768 -0.015123 0.738532
v 0.304537 -0.010335 0.907190
v 0.472896 0.000334 0.753390
v 0.319127 -0.004454 0.584732
v 0.278700 0.672615 0.756865
vt 0.500000 0.500000
vt 1.000000 0.500000
vt 1.000000 1.000000
vt 0.500000 1.000000
vt 0.000000 0.500000
vt 0.000000 1.000000
vt 0.000000 0.000000
vt 0.500000 0.000000
vt 1.000000 0.000000
vn 0.7190 0.2127 -0.6616
vn -0.6723 0.1460 -0.7258
vn -0.7353 0.1206 0.6670
vn 0.6560 0.1873 0.7311
usemtl Material.001
s off
f 112/104/46 110/105/46 107/106/46 111/107/46
f 108/108/47 112/104/47 111/107/47 106/109/47
f 104/110/48 109/111/48 112/104/48 108/108/48
f 109/111/49 105/112/49 110/105/49 112/104/49
o Plane.013
v 0.208966 -0.005630 -0.155935
v 0.371579 0.002867 -0.149231
v 0.216332 -0.018542 -0.318228
v 0.378944 -0.010046 -0.311524
v 0.132891 -0.016253 -0.240369
v 0.286660 0.004952 -0.072982
v 0.455020 0.000578 -0.227089
v 0.301251 -0.020627 -0.394477
v 0.260824 0.669997 -0.289164
vt 0.500000 0.500000
vt 1.000000 0.500000
vt 1.000000 1.000000
vt 0.500000 1.000000
vt 0.000000 0.500000
vt 0.000000 1.000000
vt 0.000000 0.000000
vt 0.500000 0.000000
vt 1.000000 0.000000
vn 0.7190 0.1472 -0.6792
vn -0.6723 0.0745 -0.7366
vn -0.7353 0.1850 0.6520
vn 0.6560 0.2577 0.7094
usemtl Material.001
s off
f 121/113/50 119/114/50 116/115/50 120/116/50
f 117/117/51 121/113/51 120/116/51 115/118/51
f 113/119/52 118/120/52 121/113/52 117/117/52
f 118/120/53 114/121/53 119/114/53 121/113/53
o Plane.014
v 0.672116 -0.005630 -0.162933
v 0.834728 0.002867 -0.156229
v 0.679481 -0.018542 -0.325226
v 0.842094 -0.010046 -0.318523
v 0.596040 -0.016253 -0.247368
v 0.749809 0.004952 -0.079980
v 0.918169 0.000578 -0.234088
v 0.764400 -0.020627 -0.401476
v 0.723973 0.669997 -0.296162
vt 0.500000 0.500000
vt 1.000000 0.500000
vt 1.000000 1.000000
vt 0.500000 1.000000
vt 0.000000 0.500000
vt 0.000000 1.000000
vt 0.000000 0.000000
vt 0.500000 0.000000
vt 1.000000 0.000000
vn 0.7190 0.1472 -0.6792
vn -0.6723 0.0745 -0.7365
vn -0.7353 0.1850 0.6520
vn 0.6560 0.2577 0.7094
usemtl Material.001
s off
f 130/122/54 128/123/54 125/124/54 129/125/54
f 126/126/55 130/122/55 129/125/55 124/127/55
f 122/128/56 127/129/56 130/122/56 126/126/56
f 127/129/57 123/130/57 128/123/57 130/122/57
o Plane.015
v 0.239749 -0.005630 -0.633238
v 0.402362 0.002867 -0.626534
v 0.247114 -0.018542 -0.795531
v 0.409727 -0.010046 -0.788827
v 0.163674 -0.016253 -0.717673
v 0.317443 0.004952 -0.550285
v 0.485802 0.000578 -0.704393
v 0.332033 -0.020627 -0.871780
v 0.291606 0.669997 -0.766467
vt 0.500000 0.500000
vt 1.000000 0.500000
vt 1.000000 1.000000
vt 0.500000 1.000000
vt 0.000000 0.500000
vt 0.000000 1.000000
vt 0.000000 0.000000
vt 0.500000 0.000000
vt 1.000000 0.000000
vn 0.7190 0.1472 -0.6792
vn -0.6723 0.0745 -0.7366
vn -0.7353 0.1850 0.6520
vn 0.6560 0.2577 0.7094
usemtl Material.001
s off
f 139/131/58 137/132/58 134/133/58 138/134/58
f 135/135/59 139/131/59 138/134/59 133/136/59
f 131/137/60 136/138/60 139/131/60 135/135/60
f 136/138/61 132/139/61 137/132/61 139/131/61
o Plane.016
v 0.672075 -0.005630 -0.633929
v 0.834688 0.002867 -0.627225
v 0.679440 -0.018542 -0.796222
v 0.842053 -0.010046 -0.789518
v 0.596000 -0.016253 -0.718364
v 0.749769 0.004952 -0.550976
v 0.918128 0.000578 -0.705084
v 0.764359 -0.020627 -0.872471
v 0.723932 0.669997 -0.767158
vt 0.500000 0.500000
vt 1.000000 0.500000
vt 1.000000 1.000000
vt 0.500000 1.000000
vt 0.000000 0.500000
vt 0.000000 1.000000
vt 0.000000 0.000000
vt 0.500000 0.000000
vt 1.000000 0.000000
vn 0.7190 0.1472 -0.6792
vn -0.6723 0.0745 -0.7366
vn -0.7353 0.1850 0.6520
vn 0.6560 0.2577 0.7094
usemtl Material.001
s off
f 148/140/62 146/141/62 143/142/62 147/143/62
f 144/144/63 148/140/63 147/143/63 142/145/63
f 140/146/64 145/147/64 148/140/64 144/144/64
f 145/147/65 141/148/65 146/141/65 148/140/65
